<svg width="360" height="360" version="1.1" xmlns="http://www.w3.org/2000/svg" desc="Created with imagetracer.js version 1.2.6" ><path fill="rgb(255,255,255)" stroke="rgb(255,255,255)" stroke-width="1" opacity="0" d="M 0 0 L 360 0 L 360 360 L 0 360 L 0 0 Z M 30 31 L 30 329 L 330 329 L 330 31 L 30 31 Z " /><path fill="rgb(255,255,255)" stroke="rgb(255,255,255)" stroke-width="1" opacity="0" d="M 34 35 L 326 35 L 326 325 L 34 325 L 34 35 Z M 101 45 L 101 72 L 151 72 L 151 45 L 101 45 Z M 156 45 L 156 72 L 206 72 L 206 45 L 156 45 Z M 211 45 L 211 72 L 261 72 L 261 45 L 211 45 Z M 101 77 L 101 104 L 151 104 L 151 77 L 101 77 Z M 211 77 L 211 104 L 261 104 L 261 77 L 211 77 Z M 187 109 L 182 111 L 177 118 Q 176 124 178 127 L 185 132 L 190 132 L 194 129 L 195 129 L 197 125 Q 198 118 196 115 L 193 111 L 187 109 Z M 133 178 L 131 179 L 127 183 L 126 186 Q 125 190 127 192 L 132 196 L 134 196 L 134 179 L 133 178 Z M 139 178 L 139 196 L 140 196 L 214 196 L 214 179 L 214 178 L 139 178 Z M 219 178 L 219 196 L 224 195 L 226 193 L 227 190 Q 228 185 226 183 Q 224 178 219 178 Z M 262 214 L 260 215 L 257 220 L 258 223 L 258 230 L 259 231 L 259 237 L 260 238 L 260 243 L 265 243 L 265 239 L 266 238 L 266 232 L 267 231 L 267 225 L 268 224 Q 269 219 267 217 L 264 214 L 262 214 Z M 44 223 L 44 282 L 70 282 Q 70 280 74 281 L 81 277 L 86 272 L 91 261 L 91 246 L 89 240 L 85 233 L 79 227 L 72 224 Q 67 225 67 223 L 44 223 Z M 117 223 L 116 228 L 114 231 L 113 236 L 111 239 L 109 247 L 107 250 L 105 258 L 103 261 L 102 266 L 100 269 L 98 277 L 96 280 Q 96 282 97 282 L 110 282 L 113 272 L 115 270 L 134 270 L 137 279 L 137 282 L 152 282 L 149 276 L 147 268 L 145 265 L 143 257 L 141 254 L 137 241 L 135 238 L 131 225 L 130 223 L 117 223 Z M 149 223 L 150 230 L 154 238 L 156 246 L 158 249 L 160 257 L 165 268 L 169 281 L 171 282 L 183 282 L 184 281 Q 185 274 188 271 L 191 260 L 193 257 L 195 249 L 197 246 L 198 241 L 200 238 L 201 233 L 205 224 L 192 223 L 190 225 L 177 265 L 175 264 L 175 261 L 163 225 L 162 223 L 149 223 Z M 211 223 L 211 282 L 251 282 L 251 269 L 224 269 L 224 259 L 246 259 L 246 246 L 224 246 L 224 236 L 251 236 L 251 224 L 251 223 L 211 223 Z M 290 223 L 280 227 L 276 232 L 274 237 L 274 245 L 276 250 L 282 255 L 288 258 L 298 260 L 304 265 Q 305 268 302 269 L 280 269 L 279 268 L 274 268 L 274 281 Q 277 280 278 282 L 283 282 L 284 283 L 299 283 L 310 279 L 315 274 L 316 268 L 317 267 L 315 257 Q 312 251 306 249 L 300 248 L 296 246 L 293 246 L 289 244 L 286 240 L 289 237 L 292 236 L 303 236 L 304 237 L 312 237 L 313 238 Q 315 238 315 238 L 315 225 L 313 224 L 308 224 L 307 223 L 290 223 Z M 52 293 L 50 294 L 46 298 L 44 303 L 44 307 L 46 312 L 50 315 L 53 316 L 61 316 Q 61 314 64 315 L 64 302 L 54 302 L 54 307 L 59 307 L 59 311 Q 54 312 52 310 L 49 307 Q 48 302 50 301 L 53 298 L 62 298 L 63 299 L 63 293 L 52 293 Z M 74 293 L 66 316 L 71 316 Q 73 316 72 313 L 74 311 L 81 311 Q 82 312 82 315 L 84 316 L 88 316 L 80 295 L 80 293 L 74 293 Z M 91 293 L 91 316 L 92 316 L 96 316 L 97 304 L 100 310 L 100 311 L 105 311 L 107 307 L 110 304 L 110 305 L 110 316 L 115 316 L 115 294 L 115 293 L 109 293 L 104 304 Q 105 306 102 305 L 97 295 L 96 293 L 91 293 Z M 119 293 L 119 316 L 135 316 L 135 311 L 124 311 L 124 307 L 133 307 L 133 302 L 124 302 L 124 298 L 135 298 L 135 294 L 135 293 L 119 293 Z M 146 293 L 146 316 L 162 316 L 162 311 L 151 311 L 151 307 L 160 307 L 160 302 L 151 302 L 151 298 L 162 298 L 162 294 L 162 293 L 146 293 Z M 165 293 L 165 316 L 170 316 L 170 305 L 172 304 L 174 310 Q 175 312 180 311 L 183 305 L 184 305 L 184 316 L 189 316 L 189 294 Q 189 293 185 293 L 178 305 L 171 295 L 171 293 L 165 293 Z M 194 293 L 194 316 L 199 316 L 199 308 Q 208 310 211 304 Q 212 298 210 296 L 207 293 L 194 293 Z M 221 293 L 219 294 L 214 300 L 214 309 L 216 313 L 222 316 L 228 316 L 231 315 L 234 312 L 236 306 L 236 303 L 234 298 Q 231 291 221 293 Z M 239 293 L 239 316 L 244 316 L 244 307 L 246 306 L 246 308 L 253 316 L 258 316 L 253 309 Q 252 305 255 306 L 257 302 L 256 297 L 253 293 L 239 293 Z M 261 293 L 261 316 L 262 316 L 266 316 L 266 294 L 266 293 L 261 293 Z M 270 293 L 270 309 L 271 312 L 277 316 Q 282 317 285 315 L 287 313 L 289 307 L 289 293 L 284 293 L 284 308 L 283 310 Q 282 312 278 311 L 275 308 L 275 293 L 270 293 Z M 293 293 L 293 316 L 294 316 L 298 316 L 299 304 L 302 310 L 302 311 L 307 311 L 310 304 L 312 305 L 312 316 L 317 316 L 317 294 L 317 293 L 311 293 Q 310 299 306 303 Q 307 306 305 305 L 299 295 L 298 293 L 293 293 Z " /><path fill="rgb(255,255,255)" stroke="rgb(255,255,255)" stroke-width="1" opacity="0" d="M 58.5 236 L 65.5 236 Q 66.25 237.75 69.5 237 L 76 242.5 L 78 246.5 L 78 258.5 Q 75.67 264.67 70.5 268 L 67.5 269 L 58.5 269 L 57 267.5 L 57 237.5 L 58.5 236 Z " /><path fill="rgb(255,255,255)" stroke="rgb(255,255,255)" stroke-width="1" opacity="0" d="M 123.5 240 L 128 250.5 L 129 257 L 118.5 257 L 118 255.5 L 123.5 240 Z " /><path fill="rgb(255,255,255)" stroke="rgb(255,255,255)" stroke-width="1" opacity="0" d="M 199 298 L 206 298 L 206 301.5 L 204.5 303 L 199 303 L 199 298 Z " /><path fill="rgb(255,255,255)" stroke="rgb(255,255,255)" stroke-width="1" opacity="0" d="M 221.5 298 Q 228.5 296.5 230 300.5 L 231 305.5 L 230 308.5 L 227.5 311 L 222.5 311 L 220 310 L 218 304.5 Q 219.75 303.75 219 300.5 L 221.5 298 Z " /><path fill="rgb(255,255,255)" stroke="rgb(255,255,255)" stroke-width="1" opacity="0" d="M 244 298 L 250.5 298 L 252 299.5 Q 253.5 303.87 250.5 303 Q 249.5 305 245.5 304 L 244 302.5 L 244 298 Z " /><path fill="rgb(255,255,255)" stroke="rgb(255,255,255)" stroke-width="1" opacity="0" d="M 76 300 Q 79 298.75 78 302.5 Q 79.75 303.42 79 306 L 75 306 L 75 303.5 Q 76.75 302.58 76 300 Z " /><path fill="rgb(255,255,255)" stroke="rgb(255,255,255)" stroke-width="1" opacity="0.9607843137254902" d="M 30 31 L 330 31 L 330 329 L 30 329 L 30 31 Z M 31 32 L 31 328 L 329 328 L 329 32 L 31 32 Z " /><path fill="rgb(255,255,255)" stroke="rgb(255,255,255)" stroke-width="1" opacity="0.9607843137254902" d="M 34.5 34 L 325.5 34 L 327 35.5 L 327 324.5 L 325.5 326 L 34.5 326 L 33 324.5 L 33 35.5 L 34.5 34 Z M 34 35 L 34 325 L 326 325 L 326 35 L 34 35 Z " /><path fill="rgb(255,255,255)" stroke="rgb(255,255,255)" stroke-width="1" opacity="0.9607843137254902" d="M 101 45 L 151 45 L 151 72 L 101 72 L 101 45 Z M 102 46 L 102 71 L 150 71 L 150 46 L 102 46 Z " /><path fill="rgb(255,255,255)" stroke="rgb(255,255,255)" stroke-width="1" opacity="0.9607843137254902" d="M 156 45 L 206 45 L 206 72 L 156 72 L 156 45 Z M 157 46 L 157 71 L 205 71 L 205 46 L 157 46 Z " /><path fill="rgb(255,255,255)" stroke="rgb(255,255,255)" stroke-width="1" opacity="0.9607843137254902" d="M 211 45 L 261 45 L 261 72 L 211 72 L 211 45 Z M 212 46 L 212 71 L 260 71 L 260 46 L 212 46 Z " /><path fill="rgb(255,255,255)" stroke="rgb(255,255,255)" stroke-width="1" opacity="0.9607843137254902" d="M 101 77 L 151 77 L 151 104 L 101 104 L 101 77 Z M 102 78 L 102 103 L 150 103 L 150 78 L 102 78 Z " /><path fill="rgb(255,255,255)" stroke="rgb(255,255,255)" stroke-width="1" opacity="0.9607843137254902" d="M 211 77 L 261 77 L 261 104 L 211 104 L 211 77 Z M 212 78 L 212 103 L 260 103 L 260 78 L 212 78 Z " /><path fill="rgb(255,255,255)" stroke="rgb(255,255,255)" stroke-width="1" opacity="0.9607843137254902" d="M 186.5 109 L 192.5 111 L 196 114.5 Q 198.33 117.67 197 124.5 L 195 129 L 193.5 129 L 189.5 132 L 184.5 132 L 178 126.5 Q 175.83 123.67 177 117.5 L 181.5 111 L 186.5 109 Z M 187 110 L 182 112 L 178 118 Q 177 124 179 127 L 185 131 Q 189 132 192 130 L 196 125 Q 197 118 195 115 L 193 112 L 187 110 Z " /><path fill="rgb(255,255,255)" stroke="rgb(255,255,255)" stroke-width="1" opacity="0.9607843137254902" d="M 132.5 178 L 134 178.5 L 134 196 L 131.5 196 L 127 191.5 Q 125.33 189.67 126 185.5 L 127 182.5 L 130.5 179 L 132.5 178 Z M 133 179 L 131 180 L 128 183 L 127 186 Q 126 190 128 192 L 132 195 L 133 195 L 133 179 Z " /><path fill="rgb(255,255,255)" stroke="rgb(255,255,255)" stroke-width="1" opacity="0.9607843137254902" d="M 139 178 L 213.5 178 L 214 178.5 L 214 196 L 139.5 196 L 139 195.5 L 139 178 Z M 140 179 L 140 195 L 141 195 L 213 195 L 213 180 L 213 179 L 140 179 Z " /><path fill="rgb(255,255,255)" stroke="rgb(255,255,255)" stroke-width="1" opacity="0.9607843137254902" d="M 219 178 Q 223.7 178.45 226 182.5 Q 227.83 184.67 227 189.5 L 226 192.5 L 223.5 195 L 219 196 L 219 178 Z M 221 179 L 220 195 L 224 194 L 226 190 Q 227 185 225 183 L 221 179 Z " /><path fill="rgb(255,255,255)" stroke="rgb(255,255,255)" stroke-width="1" opacity="0.9607843137254902" d="M 261.5 214 L 263.5 214 L 267 216.5 Q 268.83 218.67 268 223.5 L 267 224.5 L 267 230.5 L 266 231.5 L 266 237.5 L 265 238.5 L 265 243 L 260 243 L 260 237.5 L 259 236.5 L 259 230.5 L 258 229.5 L 258 222.5 L 257 219.5 L 259.5 215 L 261.5 214 Z M 262 215 L 259 216 Q 260 219 258 220 L 259 223 L 259 230 L 260 231 L 260 237 L 261 238 Q 259 244 264 242 Q 263 239 265 238 L 265 232 L 266 231 L 266 225 L 267 224 L 267 219 L 266 216 L 262 215 Z " /><path fill="rgb(255,255,255)" stroke="rgb(255,255,255)" stroke-width="1" opacity="0.9607843137254902" d="M 44 223 L 66.5 223 Q 67.5 225 71.5 224 L 78.5 227 L 85 232.5 L 89 239.5 L 91 245.5 L 91 260.5 L 86 271.5 L 80.5 277 L 73.5 281 Q 70.25 280.25 69.5 282 L 44 282 L 44 223 Z M 45 224 L 45 281 L 70 281 Q 70 279 74 280 L 81 276 L 85 272 L 90 261 L 90 246 L 88 240 L 84 233 L 79 228 L 72 225 Q 67 226 67 224 L 45 224 Z " /><path fill="rgb(255,255,255)" stroke="rgb(255,255,255)" stroke-width="1" opacity="0.9607843137254902" d="M 117 223 L 129.5 223 L 131 224.5 L 135 237.5 L 137 240.5 L 141 253.5 L 143 256.5 L 145 264.5 L 147 267.5 L 149 275.5 L 152 281.5 L 137 282 L 137 278.5 L 134 270 L 114.5 270 L 113 271.5 L 110 282 L 96.5 282 Q 95.75 282.25 96 279.5 L 98 276.5 L 100 268.5 L 102 265.5 L 103 260.5 L 105 257.5 L 107 249.5 L 109 246.5 L 111 238.5 L 113 235.5 L 114 230.5 L 116 227.5 L 117 223 Z M 119 224 L 115 231 L 106 258 L 101 269 L 99 277 L 97 280 L 98 281 L 109 281 L 112 272 L 115 269 L 134 269 L 136 273 L 138 279 Q 138 281 139 281 L 150 281 L 150 279 L 144 265 L 142 257 L 140 254 L 136 241 L 134 238 L 132 230 L 130 227 Q 130 224 130 224 L 119 224 Z " /><path fill="rgb(255,255,255)" stroke="rgb(255,255,255)" stroke-width="1" opacity="0.9607843137254902" d="M 148.5 223 L 161.5 223 L 163 224.5 L 175 260.5 L 175 263.5 L 176.5 265 L 190 224.5 L 191.5 223 L 205 223.5 L 201 232.5 L 200 237.5 L 198 240.5 L 197 245.5 L 195 248.5 L 193 256.5 L 191 259.5 L 188 270.5 Q 184.54 274.04 184 280.5 L 182.5 282 L 170.5 282 L 169 280.5 L 165 267.5 L 160 256.5 L 158 248.5 L 156 245.5 L 154 237.5 L 150 229.5 L 148.5 223 Z M 150 224 L 151 230 L 155 238 L 161 257 L 166 268 L 168 276 L 170 279 Q 170 281 171 281 L 183 281 L 184 276 L 187 271 L 190 260 L 192 257 L 194 249 L 196 246 L 197 241 L 203 227 Q 203 224 203 224 L 191 224 L 191 227 L 179 263 L 177 266 L 174 264 L 174 261 L 162 227 Q 162 224 162 224 L 150 224 Z " /><path fill="rgb(255,255,255)" stroke="rgb(255,255,255)" stroke-width="1" opacity="0.9607843137254902" d="M 211 223 L 250.5 223 L 251 223.5 L 251 236 L 224 236 L 224 246 L 246 246 L 246 259 L 224 259 L 224 269 L 251 269 L 251 282 L 211 282 L 211 223 Z M 212 224 L 212 281 L 250 281 L 250 270 L 225 270 L 223 269 L 223 260 L 225 258 L 245 258 L 245 247 L 225 247 L 223 246 L 223 237 L 225 235 L 250 235 L 250 225 L 250 224 L 212 224 Z " /><path fill="rgb(255,255,255)" stroke="rgb(255,255,255)" stroke-width="1" opacity="0.9607843137254902" d="M 289.5 223 L 306.5 223 L 307.5 224 L 312.5 224 L 315 225 L 315 237.5 Q 315.25 238.25 312.5 238 L 311.5 237 L 303.5 237 L 302.5 236 L 291.5 236 L 288.5 237 L 286 239.5 L 288.5 244 L 292.5 246 L 295.5 246 L 299.5 248 L 305.5 249 Q 311.67 251.33 315 256.5 L 317 266.5 L 316 267.5 L 315 273.5 L 309.5 279 L 298.5 283 L 283.5 283 L 282.5 282 L 277.5 282 Q 276.58 280.25 274 281 L 274 268 L 278.5 268 L 279.5 269 L 301.5 269 Q 304.5 268.5 304 264.5 L 297.5 260 L 287.5 258 L 281.5 255 L 276 249.5 L 274 244.5 L 274 236.5 L 276 231.5 L 279.5 227 L 289.5 223 Z M 290 224 L 279 228 L 275 237 L 275 245 L 277 250 L 282 254 L 288 257 L 298 259 Q 302 261 305 265 L 305 267 L 302 270 L 280 270 L 279 269 L 275 269 L 275 280 L 278 281 L 283 281 L 284 282 L 299 282 L 310 278 L 314 274 L 315 268 L 316 267 L 314 257 Q 311 252 306 250 L 300 249 L 296 247 L 293 247 L 289 245 Q 286 243 285 240 L 289 236 L 292 235 L 303 235 L 304 236 L 312 236 L 313 237 L 314 237 L 314 227 L 313 225 Q 308 226 307 224 L 290 224 Z " /><path fill="rgb(255,255,255)" stroke="rgb(255,255,255)" stroke-width="1" opacity="0.9607843137254902" d="M 58.5 235 L 65.5 235 Q 66.25 236.75 69.5 236 L 77 242.5 L 79 246.5 L 79 258.5 Q 76.33 265.33 70.5 269 L 67.5 270 L 58.5 270 L 56 267.5 L 56 237.5 L 58.5 235 Z M 59 236 L 57 238 L 57 268 L 59 269 L 68 269 L 71 268 Q 76 265 78 259 L 78 247 L 76 243 L 70 237 Q 66 238 66 236 L 59 236 Z " /><path fill="rgb(255,255,255)" stroke="rgb(255,255,255)" stroke-width="1" opacity="0.9607843137254902" d="M 123.5 239 L 126 242.5 L 127 247.5 L 129 250.5 L 130 256.5 L 128.5 258 L 118.5 258 L 117 255.5 L 122 240.5 L 123.5 239 Z M 124 240 L 118 256 L 119 257 L 129 257 L 128 251 L 124 240 Z " /><path fill="rgb(255,255,255)" stroke="rgb(255,255,255)" stroke-width="1" opacity="0.9607843137254902" d="M 51.5 293 L 63 293 L 63 298.5 L 61.5 298 L 52.5 298 L 50 300.5 Q 48.33 302.33 49 306.5 L 51.5 310 Q 54.12 312 59 311 L 59 307 L 54 307 L 54 302 L 64 302 L 64 315 Q 61.42 314.25 60.5 316 L 52.5 316 L 49.5 315 L 46 311.5 L 44 306.5 L 44 302.5 L 46 297.5 L 49.5 294 L 51.5 293 Z M 52 294 L 50 295 L 47 298 L 45 303 L 45 307 L 47 312 L 50 314 L 53 315 L 61 315 L 62 314 L 63 314 L 63 303 L 55 303 L 55 306 Q 59 305 60 308 Q 61 311 59 312 Q 54 313 52 311 L 48 307 Q 47 302 49 301 L 53 297 L 62 297 Q 62 294 62 294 L 52 294 Z " /><path fill="rgb(255,255,255)" stroke="rgb(255,255,255)" stroke-width="1" opacity="0.9607843137254902" d="M 74 293 L 79.5 293 L 80 294.5 L 88 316 L 83.5 316 L 82 314.5 Q 82.5 311.5 80.5 311 L 73.5 311 L 72 312.5 Q 72.5 315.5 70.5 316 L 66 315.5 L 74 293 Z M 76 294 L 74 296 L 72 304 L 70 307 L 68 315 Q 72 317 71 313 Q 73 308 81 310 Q 84 311 83 315 L 87 315 L 85 312 L 80 296 Q 79 293 76 294 Z " /><path fill="rgb(255,255,255)" stroke="rgb(255,255,255)" stroke-width="1" opacity="0.9607843137254902" d="M 91 293 L 95.5 293 L 97 294.5 L 102 305 Q 104.67 306.13 104 303.5 L 109 293 L 114.5 293 L 115 293.5 L 115 316 L 110 316 L 110 304.5 L 109.5 304 L 107 306.5 L 104.5 311 L 100 311 L 100 309.5 L 96.5 304 L 96 316 L 91.5 316 L 91 315.5 L 91 293 Z M 92 294 L 92 315 Q 92 315 95 315 L 95 305 L 97 303 L 100 309 Q 101 311 105 310 L 106 307 L 110 303 L 111 305 L 111 315 Q 111 315 114 315 L 114 295 Q 114 294 111 294 L 105 305 L 103 306 L 96 296 L 96 294 L 92 294 Z " /><path fill="rgb(255,255,255)" stroke="rgb(255,255,255)" stroke-width="1" opacity="0.9607843137254902" d="M 119 293 L 134.5 293 L 135 293.5 L 135 298 L 124 298 L 124 302 L 133 302 L 133 307 L 124 307 L 124 311 L 135 311 L 135 316 L 119 316 L 119 293 Z M 120 294 L 120 315 L 134 315 Q 134 312 134 312 L 125 312 Q 122 311 123 308 L 125 306 L 132 306 L 132 303 L 125 303 Q 122 302 123 299 L 125 297 L 134 297 Q 134 294 134 294 L 120 294 Z " /><path fill="rgb(255,255,255)" stroke="rgb(255,255,255)" stroke-width="1" opacity="0.9607843137254902" d="M 146 293 L 161.5 293 L 162 293.5 L 162 298 L 151 298 L 151 302 L 160 302 L 160 307 L 151 307 L 151 311 L 162 311 L 162 316 L 146 316 L 146 293 Z M 147 294 L 147 315 L 161 315 Q 161 312 161 312 L 152 312 Q 149 311 150 308 L 152 306 L 159 306 L 159 303 L 152 303 Q 149 302 150 299 L 152 297 L 161 297 Q 161 294 161 294 L 147 294 Z " /><path fill="rgb(255,255,255)" stroke="rgb(255,255,255)" stroke-width="1" opacity="0.9607843137254902" d="M 165 293 L 170.5 293 L 171 294.5 L 177.5 305 L 184.5 293 Q 189 292.5 189 293.5 L 189 316 L 184 316 L 184 304.5 L 183 304.5 L 179.5 311 Q 175 312 174 309.5 L 172 304 L 170 304.5 L 170 316 L 165 316 L 165 293 Z M 166 294 L 166 315 Q 169 315 169 315 L 169 305 L 172 303 L 175 309 L 175 310 L 180 310 L 182 305 Q 184 302 185 305 L 185 315 Q 185 315 188 315 L 188 295 Q 188 294 184 294 L 180 304 L 178 306 L 175 304 L 171 296 Q 170 293 166 294 Z " /><path fill="rgb(255,255,255)" stroke="rgb(255,255,255)" stroke-width="1" opacity="0.9607843137254902" d="M 194 293 L 206.5 293 L 210 295.5 Q 212 298 211 303.5 Q 208.22 309.58 199 308 L 199 316 L 194 316 L 194 293 Z M 195 294 L 195 315 L 198 315 L 198 309 Q 199 305 206 307 L 210 304 L 210 298 L 209 295 L 207 294 L 195 294 Z " /><path fill="rgb(255,255,255)" stroke="rgb(255,255,255)" stroke-width="1" opacity="0.9607843137254902" d="M 220.5 293 Q 231.3 291.2 234 297.5 L 236 302.5 L 236 305.5 L 234 311.5 L 230.5 315 L 227.5 316 L 221.5 316 L 216 312.5 L 214 308.5 L 214 299.5 L 218.5 294 L 220.5 293 Z M 221 294 L 219 295 L 215 300 L 215 309 L 217 313 L 222 315 L 228 315 L 231 314 L 233 312 L 235 306 L 235 303 L 233 298 Q 230 292 221 294 Z " /><path fill="rgb(255,255,255)" stroke="rgb(255,255,255)" stroke-width="1" opacity="0.9607843137254902" d="M 239 293 L 252.5 293 L 256 296.5 L 257 301.5 L 254.5 306 Q 251.88 305.17 253 308.5 L 258 315.5 L 252.5 316 L 246 307.5 L 246 306 L 244 306.5 L 244 316 L 239 316 L 239 293 Z M 240 294 L 240 315 Q 240 315 243 315 L 243 307 L 245 305 Q 242 304 243 299 Q 244 296 251 297 Q 254 298 253 303 Q 251 305 246 306 L 252 314 L 252 315 L 256 315 L 256 314 L 252 309 L 252 307 L 255 305 Q 254 302 256 302 L 255 297 L 253 294 L 240 294 Z M 244 298 L 244 303 L 246 304 Q 249 305 251 303 Q 253 304 252 300 L 251 298 L 244 298 Z " /><path fill="rgb(255,255,255)" stroke="rgb(255,255,255)" stroke-width="1" opacity="0.9607843137254902" d="M 261 293 L 265.5 293 L 266 293.5 L 266 316 L 261.5 316 L 261 315.5 L 261 293 Z M 262 294 L 262 315 Q 262 315 265 315 L 265 295 Q 265 294 262 294 Z " /><path fill="rgb(255,255,255)" stroke="rgb(255,255,255)" stroke-width="1" opacity="0.9607843137254902" d="M 270 293 L 275 293 L 275 307.5 L 277.5 311 Q 282 312 283 309.5 L 284 307.5 L 284 293 L 289 293 L 289 306.5 L 287 312.5 L 284.5 315 Q 282 317 276.5 316 L 271 311.5 L 270 308.5 L 270 293 Z M 271 294 L 271 309 L 272 312 L 277 315 Q 282 316 285 314 L 287 311 Q 286 307 288 307 L 288 295 Q 288 294 285 294 L 285 308 L 284 310 Q 283 313 278 312 L 274 308 L 274 295 Q 274 294 271 294 Z " /><path fill="rgb(255,255,255)" stroke="rgb(255,255,255)" stroke-width="1" opacity="0.9607843137254902" d="M 293 293 L 297.5 293 L 299 294.5 L 304.5 305 Q 307.13 305.83 306 302.5 Q 309.84 298.62 311 293 L 316.5 293 L 317 293.5 L 317 316 L 312 316 L 312 304.5 L 310 304 L 306.5 311 L 302 311 L 302 309.5 L 298.5 304 L 298 316 L 293.5 316 L 293 315.5 L 293 293 Z M 294 294 L 294 315 Q 294 315 297 315 L 297 305 L 299 303 L 301 308 Q 302 311 307 310 L 311 303 L 313 305 L 313 315 Q 313 315 316 315 L 316 295 Q 316 294 313 294 L 308 301 L 307 305 L 305 306 L 302 304 L 298 296 L 298 294 L 294 294 Z " /><path fill="rgb(255,255,255)" stroke="rgb(255,255,255)" stroke-width="1" opacity="0.9607843137254902" d="M 199.5 297 Q 205.5 295.5 207 298.5 Q 207.75 303.25 204.5 304 Q 199.25 305.25 198 302.5 Q 197 298 199.5 297 Z M 199 298 L 199 303 L 205 303 L 206 302 L 206 298 L 199 298 Z " /><path fill="rgb(255,255,255)" stroke="rgb(255,255,255)" stroke-width="1" opacity="0.9607843137254902" d="M 221.5 297 Q 229.5 295.5 231 300.5 L 232 305.5 L 231 308.5 L 227.5 312 Q 220.96 313.04 219 309.5 L 217 304.5 Q 218.75 303.75 218 300.5 L 221.5 297 Z M 222 298 L 219 301 Q 220 304 218 305 L 220 310 L 223 311 L 228 311 L 230 309 L 231 306 L 230 301 Q 229 297 222 298 Z " /><path fill="rgb(255,255,255)" stroke="rgb(255,255,255)" stroke-width="1" opacity="0.9607843137254902" d="M 76.5 299 L 79 300.5 L 80 305.5 Q 79.25 307.75 75.5 307 Q 73.5 306.5 74 303.5 L 76.5 299 Z M 76 300 Q 77 303 75 304 L 75 306 L 79 306 Q 80 303 78 303 Q 79 299 76 300 Z " /><path fill="rgb(255,255,255)" stroke="rgb(255,255,255)" stroke-width="1" opacity="1" d="M 31 32 L 329 32 L 329 328 L 31 328 L 31 32 Z M 35 34 L 33 36 L 33 325 L 35 326 L 326 326 L 327 325 L 327 36 L 326 34 L 35 34 Z " /><path fill="rgb(255,255,255)" stroke="rgb(255,255,255)" stroke-width="1" opacity="1" d="M 102 46 L 150 46 L 150 71 L 102 71 L 102 46 Z " /><path fill="rgb(255,255,255)" stroke="rgb(255,255,255)" stroke-width="1" opacity="1" d="M 157 46 L 205 46 L 205 71 L 157 71 L 157 46 Z " /><path fill="rgb(255,255,255)" stroke="rgb(255,255,255)" stroke-width="1" opacity="1" d="M 212 46 L 260 46 L 260 71 L 212 71 L 212 46 Z " /><path fill="rgb(255,255,255)" stroke="rgb(255,255,255)" stroke-width="1" opacity="1" d="M 102 78 L 150 78 L 150 103 L 102 103 L 102 78 Z " /><path fill="rgb(255,255,255)" stroke="rgb(255,255,255)" stroke-width="1" opacity="1" d="M 212 78 L 260 78 L 260 103 L 212 103 L 212 78 Z " /><path fill="rgb(255,255,255)" stroke="rgb(255,255,255)" stroke-width="1" opacity="1" d="M 186.5 110 L 192.5 112 L 195 114.5 Q 197.33 117.67 196 124.5 L 191.5 130 Q 189.33 131.83 184.5 131 L 179 126.5 Q 176.83 123.67 178 117.5 L 181.5 112 L 186.5 110 Z " /><path fill="rgb(255,255,255)" stroke="rgb(255,255,255)" stroke-width="1" opacity="1" d="M 132.5 179 L 133 195 L 131.5 195 L 128 191.5 Q 126.33 189.67 127 185.5 L 128 182.5 L 130.5 180 L 132.5 179 Z " /><path fill="rgb(255,255,255)" stroke="rgb(255,255,255)" stroke-width="1" opacity="1" d="M 140 179 L 212.5 179 L 213 179.5 L 213 195 L 140.5 195 L 140 194.5 L 140 179 Z " /><path fill="rgb(255,255,255)" stroke="rgb(255,255,255)" stroke-width="1" opacity="1" d="M 220.5 179 L 225 182.5 Q 226.83 184.67 226 189.5 L 223.5 194 L 220 195 L 220.5 179 Z " /><path fill="rgb(255,255,255)" stroke="rgb(255,255,255)" stroke-width="1" opacity="1" d="M 261.5 215 L 266 216 L 267 218.5 L 267 223.5 L 266 224.5 L 266 230.5 L 265 231.5 L 265 237.5 Q 263 238.62 264 242 Q 259.13 243.8 261 237.5 L 260 236.5 L 260 230.5 L 259 229.5 L 259 222.5 L 258 219.5 Q 259.75 218.58 259 216 L 261.5 215 Z " /><path fill="rgb(255,255,255)" stroke="rgb(255,255,255)" stroke-width="1" opacity="1" d="M 45 224 L 66.5 224 Q 67.5 226 71.5 225 L 78.5 228 L 84 232.5 L 88 239.5 L 90 245.5 L 90 260.5 L 85 271.5 L 80.5 276 L 73.5 280 Q 70.25 279.25 69.5 281 L 45 281 L 45 224 Z M 59 235 L 56 238 L 56 268 L 59 270 L 68 270 L 71 269 Q 76 265 79 259 L 79 247 L 77 243 L 70 236 Q 66 237 66 235 L 59 235 Z " /><path fill="rgb(255,255,255)" stroke="rgb(255,255,255)" stroke-width="1" opacity="1" d="M 118.5 224 L 129.5 224 Q 130.25 223.75 130 226.5 L 132 229.5 L 134 237.5 L 136 240.5 L 140 253.5 L 142 256.5 L 144 264.5 L 150 278.5 L 150 281 L 138.5 281 Q 137.75 281.25 138 278.5 L 136 272.5 L 133.5 269 L 114.5 269 L 112 271.5 L 109 281 L 97.5 281 L 97 279.5 L 99 276.5 L 101 268.5 L 106 257.5 L 115 230.5 L 118.5 224 Z M 124 239 L 122 241 L 117 256 L 119 258 L 129 258 L 130 257 L 129 251 L 127 248 L 126 243 L 124 239 Z " /><path fill="rgb(255,255,255)" stroke="rgb(255,255,255)" stroke-width="1" opacity="1" d="M 150 224 L 161.5 224 Q 162.25 223.75 162 226.5 L 174 260.5 L 174 263.5 L 176.5 266 L 179 262.5 L 191 226.5 L 191 224 L 202.5 224 Q 203.25 223.75 203 226.5 L 197 240.5 L 196 245.5 L 194 248.5 L 192 256.5 L 190 259.5 L 187 270.5 L 184 275.5 L 183 281 L 170.5 281 Q 169.75 281.25 170 278.5 L 168 275.5 L 166 267.5 L 161 256.5 L 155 237.5 L 151 229.5 L 150 224 Z " /><path fill="rgb(255,255,255)" stroke="rgb(255,255,255)" stroke-width="1" opacity="1" d="M 212 224 L 249.5 224 L 250 224.5 L 250 235 L 224.5 235 L 223 236.5 L 223 245.5 L 224.5 247 L 245 247 L 245 258 L 224.5 258 L 223 259.5 L 223 268.5 L 224.5 270 L 250 270 L 250 281 L 212 281 L 212 224 Z " /><path fill="rgb(255,255,255)" stroke="rgb(255,255,255)" stroke-width="1" opacity="1" d="M 289.5 224 L 306.5 224 Q 307.75 226.25 312.5 225 L 314 226.5 L 314 236.5 L 312.5 237 L 311.5 236 L 303.5 236 L 302.5 235 L 291.5 235 L 288.5 236 L 285 239.5 Q 285.63 243.38 288.5 245 L 292.5 247 L 295.5 247 L 299.5 249 L 305.5 250 Q 311 252 314 256.5 L 316 266.5 L 315 267.5 L 314 273.5 L 309.5 278 L 298.5 282 L 283.5 282 L 282.5 281 L 277.5 281 L 275 280 L 275 269 L 278.5 269 L 279.5 270 L 301.5 270 L 305 266.5 L 305 264.5 Q 302.33 260.67 297.5 259 L 287.5 257 L 281.5 254 L 277 249.5 L 275 244.5 L 275 236.5 L 279 228 L 289.5 224 Z " /><path fill="rgb(255,255,255)" stroke="rgb(255,255,255)" stroke-width="1" opacity="1" d="M 51.5 294 L 61.5 294 Q 62.38 294.04 62 297 L 52.5 297 L 49 300.5 Q 47.33 302.33 48 306.5 L 51.5 311 Q 53.67 312.83 58.5 312 Q 60.75 311.25 60 307.5 Q 58.81 305 55 306 L 55 303 L 63 303 L 63 313.5 L 61.5 314 L 60.5 315 L 52.5 315 L 49.5 314 L 47 311.5 L 45 306.5 L 45 302.5 L 47 297.5 L 49.5 295 L 51.5 294 Z " /><path fill="rgb(255,255,255)" stroke="rgb(255,255,255)" stroke-width="1" opacity="1" d="M 75.5 294 Q 79.25 293.25 80 295.5 L 85 311.5 L 87 314.5 L 83 315 Q 83.75 311.17 80.5 310 Q 72.75 308.25 71 312.5 Q 72.13 316.67 68 315 L 70 306.5 L 72 303.5 L 74 295.5 L 75.5 294 Z M 77 299 L 74 304 Q 74 307 76 307 Q 79 308 80 306 L 79 301 L 77 299 Z " /><path fill="rgb(255,255,255)" stroke="rgb(255,255,255)" stroke-width="1" opacity="1" d="M 92 294 L 96 294 L 96 295.5 L 102.5 306 L 105 304.5 L 110.5 294 Q 114.13 293.63 114 294.5 L 114 315 Q 111.04 315.38 111 314.5 L 111 304.5 L 109.5 303 L 106 306.5 L 105 310 Q 101.19 311 100 308.5 L 96.5 303 L 95 304.5 L 95 315 Q 92.04 315.38 92 314.5 L 92 294 Z " /><path fill="rgb(255,255,255)" stroke="rgb(255,255,255)" stroke-width="1" opacity="1" d="M 120 294 L 133.5 294 Q 134.38 294.04 134 297 L 124.5 297 L 123 298.5 Q 122.25 302.25 124.5 303 L 132 303 L 132 306 L 124.5 306 L 123 307.5 Q 122.25 311.25 124.5 312 L 133.5 312 Q 134.38 312.04 134 315 L 120 315 L 120 294 Z " /><path fill="rgb(255,255,255)" stroke="rgb(255,255,255)" stroke-width="1" opacity="1" d="M 147 294 L 160.5 294 Q 161.38 294.04 161 297 L 151.5 297 L 150 298.5 Q 149.25 302.25 151.5 303 L 159 303 L 159 306 L 151.5 306 L 150 307.5 Q 149.25 311.25 151.5 312 L 160.5 312 Q 161.38 312.04 161 315 L 147 315 L 147 294 Z " /><path fill="rgb(255,255,255)" stroke="rgb(255,255,255)" stroke-width="1" opacity="1" d="M 166 294 Q 169.81 293 171 295.5 L 175 303.5 L 177.5 306 L 180 303.5 L 184 294 Q 187.88 293.5 188 294.5 L 188 315 Q 185.04 315.38 185 314.5 L 185 304.5 Q 183.5 301.5 182 304.5 L 180 310 L 175 310 L 175 308.5 L 171.5 303 L 169 304.5 L 169 314.5 Q 168.96 315.38 166 315 L 166 294 Z " /><path fill="rgb(255,255,255)" stroke="rgb(255,255,255)" stroke-width="1" opacity="1" d="M 195 294 L 206.5 294 L 209 295 L 210 297.5 L 210 303.5 L 205.5 307 Q 199.5 305.5 198 308.5 L 198 315 L 195 315 L 195 294 Z M 200 297 Q 197 298 198 303 Q 199 305 205 304 Q 208 303 207 299 Q 205 296 200 297 Z " /><path fill="rgb(255,255,255)" stroke="rgb(255,255,255)" stroke-width="1" opacity="1" d="M 220.5 294 Q 230.25 292.25 233 297.5 L 235 302.5 L 235 305.5 L 233 311.5 L 230.5 314 L 227.5 315 L 221.5 315 L 217 313 L 215 308.5 L 215 299.5 L 218.5 295 L 220.5 294 Z M 222 297 L 218 301 Q 219 304 217 305 L 219 310 Q 221 313 228 312 L 231 309 L 232 306 L 231 301 Q 229 295 222 297 Z " /><path fill="rgb(255,255,255)" stroke="rgb(255,255,255)" stroke-width="1" opacity="1" d="M 240 294 L 252.5 294 L 255 296.5 L 256 301.5 Q 254.25 302.42 255 305 L 252 306.5 L 252 308.5 L 256 313.5 L 256 315 L 252 315 L 252 313.5 L 246 305.5 Q 250.96 305.46 253 302.5 Q 253.75 297.75 250.5 297 Q 244.5 295.5 243 298.5 Q 242 303.5 245 304.5 L 243 306.5 L 243 315 Q 240.04 315.38 240 314.5 L 240 294 Z " /><path fill="rgb(255,255,255)" stroke="rgb(255,255,255)" stroke-width="1" opacity="1" d="M 262 294 Q 264.96 293.63 265 294.5 L 265 315 Q 262.04 315.38 262 314.5 L 262 294 Z " /><path fill="rgb(255,255,255)" stroke="rgb(255,255,255)" stroke-width="1" opacity="1" d="M 271 294 Q 273.96 293.63 274 294.5 L 274 307.5 L 277.5 312 Q 283 313 284 309.5 L 285 307.5 L 285 294 Q 287.96 293.63 288 294.5 L 288 306.5 Q 286.25 307.25 287 310.5 L 284.5 314 Q 282 316 276.5 315 L 272 311.5 L 271 308.5 L 271 294 Z " /><path fill="rgb(255,255,255)" stroke="rgb(255,255,255)" stroke-width="1" opacity="1" d="M 294 294 L 298 294 L 298 295.5 L 302 303.5 L 304.5 306 L 307 304.5 L 308 300.5 L 312.5 294 Q 316.13 293.63 316 294.5 L 316 315 Q 313.04 315.38 313 314.5 L 313 304.5 L 310.5 303 L 307 310 Q 302.31 311 301 307.5 L 298.5 303 L 297 304.5 L 297 315 Q 294.04 315.38 294 314.5 L 294 294 Z " /></svg>